<mxfile host="65bd71144e">
    <diagram name="Page-1" id="90a13364-a465-7bf4-72fc-28e22215d7a0">
        <mxGraphModel dx="1075" dy="810" grid="1" gridSize="10" guides="1" tooltips="1" connect="1" arrows="1" fold="1" page="1" pageScale="1.5" pageWidth="1169" pageHeight="826" background="none" math="0" shadow="0">
            <root>
                <mxCell id="0" style=";html=1;"/>
                <mxCell id="1" style=";html=1;" parent="0"/>
                <mxCell id="i4ui0MfA1XggwjKbQZMN-21" value="" style="rounded=0;whiteSpace=wrap;html=1;strokeWidth=2;fillColor=none;" parent="1" vertex="1">
                    <mxGeometry x="110" y="340" width="620" height="460" as="geometry"/>
                </mxCell>
                <mxCell id="i4ui0MfA1XggwjKbQZMN-1" value="&lt;div&gt;Database&lt;/div&gt;&lt;div&gt;(PostgreSQL or ElasticSearch)&lt;br&gt;&lt;/div&gt;" style="shape=cylinder3;whiteSpace=wrap;html=1;boundedLbl=1;backgroundOutline=1;size=15;" parent="1" vertex="1">
                    <mxGeometry x="560" y="370" width="110" height="130" as="geometry"/>
                </mxCell>
                <mxCell id="i4ui0MfA1XggwjKbQZMN-2" value="&lt;div&gt;UI Admin + API&lt;/div&gt;&lt;div&gt;(Django)&lt;br&gt;&lt;/div&gt;" style="rounded=1;whiteSpace=wrap;html=1;" parent="1" vertex="1">
                    <mxGeometry x="560" y="570" width="120" height="60" as="geometry"/>
                </mxCell>
                <mxCell id="i4ui0MfA1XggwjKbQZMN-3" value="Broker&lt;br&gt;&lt;div&gt;(RabbitMQ)&lt;/div&gt;" style="shape=cylinder3;whiteSpace=wrap;html=1;boundedLbl=1;backgroundOutline=1;size=15;" parent="1" vertex="1">
                    <mxGeometry x="360" y="520" width="110" height="90" as="geometry"/>
                </mxCell>
                <mxCell id="i4ui0MfA1XggwjKbQZMN-5" value="" style="rounded=1;whiteSpace=wrap;html=1;" parent="1" vertex="1">
                    <mxGeometry x="320" y="360" width="120" height="60" as="geometry"/>
                </mxCell>
                <mxCell id="i4ui0MfA1XggwjKbQZMN-4" value="" style="rounded=1;whiteSpace=wrap;html=1;" parent="1" vertex="1">
                    <mxGeometry x="330" y="370" width="120" height="60" as="geometry"/>
                </mxCell>
                <mxCell id="i4ui0MfA1XggwjKbQZMN-6" value="&lt;div&gt;Corpus probe&lt;/div&gt;&lt;div&gt;(Celery)&lt;br&gt;&lt;/div&gt;" style="rounded=1;whiteSpace=wrap;html=1;" parent="1" vertex="1">
                    <mxGeometry x="340" y="380" width="120" height="60" as="geometry"/>
                </mxCell>
                <mxCell id="i4ui0MfA1XggwjKbQZMN-7" value="" style="rounded=1;whiteSpace=wrap;html=1;" parent="1" vertex="1">
                    <mxGeometry x="130" y="550" width="120" height="60" as="geometry"/>
                </mxCell>
                <mxCell id="i4ui0MfA1XggwjKbQZMN-8" value="" style="rounded=1;whiteSpace=wrap;html=1;" parent="1" vertex="1">
                    <mxGeometry x="140" y="560" width="120" height="60" as="geometry"/>
                </mxCell>
                <mxCell id="i4ui0MfA1XggwjKbQZMN-9" value="&lt;div&gt;Corpus analyzer&lt;br&gt;&lt;/div&gt;&lt;div&gt;(Celery)&lt;br&gt;&lt;/div&gt;" style="rounded=1;whiteSpace=wrap;html=1;" parent="1" vertex="1">
                    <mxGeometry x="150" y="570" width="120" height="60" as="geometry"/>
                </mxCell>
                <mxCell id="i4ui0MfA1XggwjKbQZMN-11" value="" style="shape=flexArrow;endArrow=classic;startArrow=classic;html=1;endWidth=10;endSize=2.91;startWidth=10;startSize=2.91;exitX=1;exitY=0.588;exitDx=0;exitDy=0;exitPerimeter=0;entryX=0;entryY=0.5;entryDx=0;entryDy=0;" parent="1" source="i4ui0MfA1XggwjKbQZMN-3" target="i4ui0MfA1XggwjKbQZMN-2" edge="1">
                    <mxGeometry width="100" height="100" relative="1" as="geometry">
                        <mxPoint x="480" y="550" as="sourcePoint"/>
                        <mxPoint x="550" y="580" as="targetPoint"/>
                    </mxGeometry>
                </mxCell>
                <mxCell id="i4ui0MfA1XggwjKbQZMN-12" value="" style="shape=flexArrow;endArrow=classic;startArrow=classic;html=1;endWidth=10;endSize=2.91;startWidth=10;startSize=2.91;exitX=0.5;exitY=1;exitDx=0;exitDy=0;exitPerimeter=0;entryX=0.5;entryY=0;entryDx=0;entryDy=0;" parent="1" source="i4ui0MfA1XggwjKbQZMN-1" target="i4ui0MfA1XggwjKbQZMN-2" edge="1">
                    <mxGeometry width="100" height="100" relative="1" as="geometry">
                        <mxPoint x="490" y="560" as="sourcePoint"/>
                        <mxPoint x="560" y="590" as="targetPoint"/>
                    </mxGeometry>
                </mxCell>
                <mxCell id="i4ui0MfA1XggwjKbQZMN-13" value="" style="shape=flexArrow;endArrow=classic;startArrow=classic;html=1;endWidth=10;endSize=2.91;startWidth=10;startSize=2.91;exitX=1;exitY=0.5;exitDx=0;exitDy=0;entryX=0;entryY=0;entryDx=0;entryDy=52.5;entryPerimeter=0;" parent="1" source="i4ui0MfA1XggwjKbQZMN-9" target="i4ui0MfA1XggwjKbQZMN-3" edge="1">
                    <mxGeometry width="100" height="100" relative="1" as="geometry">
                        <mxPoint x="500" y="570" as="sourcePoint"/>
                        <mxPoint x="570" y="600" as="targetPoint"/>
                    </mxGeometry>
                </mxCell>
                <mxCell id="i4ui0MfA1XggwjKbQZMN-14" value="" style="shape=flexArrow;endArrow=classic;startArrow=classic;html=1;endWidth=10;endSize=2.91;startWidth=10;startSize=2.91;exitX=0.5;exitY=0;exitDx=0;exitDy=0;entryX=0.5;entryY=1;entryDx=0;entryDy=0;exitPerimeter=0;" parent="1" source="i4ui0MfA1XggwjKbQZMN-3" target="i4ui0MfA1XggwjKbQZMN-6" edge="1">
                    <mxGeometry width="100" height="100" relative="1" as="geometry">
                        <mxPoint x="300" y="590" as="sourcePoint"/>
                        <mxPoint x="370" y="542.5" as="targetPoint"/>
                    </mxGeometry>
                </mxCell>
                <mxCell id="i4ui0MfA1XggwjKbQZMN-15" value="&lt;div&gt;End user UI&lt;/div&gt;&lt;div&gt;(React)&lt;br&gt;&lt;/div&gt;" style="rounded=1;whiteSpace=wrap;html=1;" parent="1" vertex="1">
                    <mxGeometry x="560" y="710" width="120" height="60" as="geometry"/>
                </mxCell>
                <mxCell id="i4ui0MfA1XggwjKbQZMN-16" value="" style="shape=flexArrow;endArrow=classic;startArrow=classic;html=1;endWidth=10;endSize=2.91;startWidth=10;startSize=2.91;exitX=0.5;exitY=0;exitDx=0;exitDy=0;entryX=0.5;entryY=1;entryDx=0;entryDy=0;" parent="1" source="i4ui0MfA1XggwjKbQZMN-15" target="i4ui0MfA1XggwjKbQZMN-2" edge="1">
                    <mxGeometry width="100" height="100" relative="1" as="geometry">
                        <mxPoint x="480" y="537.04" as="sourcePoint"/>
                        <mxPoint x="570" y="610" as="targetPoint"/>
                    </mxGeometry>
                </mxCell>
                <mxCell id="i4ui0MfA1XggwjKbQZMN-19" value="" style="shape=cylinder3;whiteSpace=wrap;html=1;boundedLbl=1;backgroundOutline=1;size=15;" parent="1" vertex="1">
                    <mxGeometry x="370" y="700" width="60" height="80" as="geometry"/>
                </mxCell>
                <mxCell id="i4ui0MfA1XggwjKbQZMN-18" value="&lt;div&gt;Monitoring (ELK or Sentry)&lt;br&gt;&lt;/div&gt;" style="rounded=1;whiteSpace=wrap;html=1;" parent="1" vertex="1">
                    <mxGeometry x="330" y="680" width="80" height="80" as="geometry"/>
                </mxCell>
                <mxCell id="i4ui0MfA1XggwjKbQZMN-22" value="Kubernetes" style="text;html=1;strokeColor=none;fillColor=none;align=center;verticalAlign=middle;whiteSpace=wrap;rounded=0;" parent="1" vertex="1">
                    <mxGeometry x="660" y="310" width="40" height="20" as="geometry"/>
                </mxCell>
            </root>
        </mxGraphModel>
    </diagram>
</mxfile>